HIERARCHY
ROOT joint_Root
{
	OFFSET 0.0 0.0 0.0
	CHANNELS 6 Xposition Yposition Zposition Zrotation Xrotation Yrotation 
	JOINT Hips
	{
		OFFSET 4.5925 91.4895 -427.239
		CHANNELS 6 Xposition Yposition Zposition Zrotation Xrotation Yrotation 
		JOINT Spine
		{
			OFFSET 15.7357 0.0 0.0
			CHANNELS 6 Xposition Yposition Zposition Zrotation Xrotation Yrotation 
			JOINT Chest
			{
				OFFSET 8.98455 -0.406207 0.0
				CHANNELS 6 Xposition Yposition Zposition Zrotation Xrotation Yrotation 
				JOINT Neck
				{
					OFFSET 16.3773 0.0 0.0
					CHANNELS 6 Xposition Yposition Zposition Zrotation Xrotation Yrotation 
					JOINT Head
					{
						OFFSET 6.45672 0.0 0.0
						CHANNELS 6 Xposition Yposition Zposition Zrotation Xrotation Yrotation 
						End Site
						{
							OFFSET 0.0 0.0 0.0
						}
					}
				}
				JOINT Shoulder_L
				{
					OFFSET 12.9942 -0.242716 4.98039
					CHANNELS 6 Xposition Yposition Zposition Zrotation Xrotation Yrotation 
					JOINT UpperArm_L
					{
						OFFSET 5.34809 0.0 0.0
						CHANNELS 6 Xposition Yposition Zposition Zrotation Xrotation Yrotation 
						JOINT LowerArm_L
						{
							OFFSET 24.3286 1.87007e-05 0.0
							CHANNELS 6 Xposition Yposition Zposition Zrotation Xrotation Yrotation 
							JOINT Hand_L
							{
								OFFSET 22.2916 0.0 0.0
								CHANNELS 6 Xposition Yposition Zposition Zrotation Xrotation Yrotation 
								End Site
								{
									OFFSET 0.0 0.0 0.0
								}
							}
						}
					}
				}
				JOINT Shoulder_R
				{
					OFFSET 12.9945 -0.242716 -4.98039
					CHANNELS 6 Xposition Yposition Zposition Zrotation Xrotation Yrotation 
					JOINT UpperArm_R
					{
						OFFSET -5.34813 0.0 0.0
						CHANNELS 6 Xposition Yposition Zposition Zrotation Xrotation Yrotation 
						JOINT LowerArm_R
						{
							OFFSET -24.3289 0.000322201 0.0
							CHANNELS 6 Xposition Yposition Zposition Zrotation Xrotation Yrotation 
							JOINT Hand_R
							{
								OFFSET -22.2915 -0.000108084 0.0
								CHANNELS 6 Xposition Yposition Zposition Zrotation Xrotation Yrotation 
								End Site
								{
									OFFSET 0.0 0.0 0.0
								}
							}
						}
					}
				}
			}
		}
		JOINT UpperLeg_L
		{
			OFFSET -2.19248 -6.46944 0.0
			CHANNELS 6 Xposition Yposition Zposition Zrotation Xrotation Yrotation 
			JOINT LowerLeg_L
			{
				OFFSET 39.0811 0.0 -1.23785e-05
				CHANNELS 6 Xposition Yposition Zposition Zrotation Xrotation Yrotation 
				JOINT Foot_L
				{
					OFFSET 40.9854 0.0 -1.26872e-05
					CHANNELS 6 Xposition Yposition Zposition Zrotation Xrotation Yrotation 
					JOINT Toes_L
					{
						OFFSET 11.7543 0.0 0.0
						CHANNELS 6 Xposition Yposition Zposition Zrotation Xrotation Yrotation 
						End Site
						{
							OFFSET 0.0 0.0 0.0
						}
					}
				}
			}
		}
		JOINT UpperLeg_R
		{
			OFFSET -2.19251 6.46944 0.0
			CHANNELS 6 Xposition Yposition Zposition Zrotation Xrotation Yrotation 
			JOINT LowerLeg_R
			{
				OFFSET -39.0811 -0.00228153 -0.0401928
				CHANNELS 6 Xposition Yposition Zposition Zrotation Xrotation Yrotation 
				JOINT Foot_R
				{
					OFFSET -40.9854 0.0 0.0
					CHANNELS 6 Xposition Yposition Zposition Zrotation Xrotation Yrotation 
					JOINT Toes_R
					{
						OFFSET -11.7543 0.0 0.0
						CHANNELS 6 Xposition Yposition Zposition Zrotation Xrotation Yrotation 
						End Site
						{
							OFFSET 0.0 0.0 0.0
						}
					}
				}
			}
		}
	}
}
MOTION
Frames:	4
Frame Time:	0.0333333
0.000000 0.000000 0.000000 0.000000 0.000000 -0.000000 -44.807400 84.133400 195.724000 -58.925100 78.702400 158.037000 15.735700 0.000005 -0.000001 71.997300 79.577500 -68.972700 8.984550 -0.406207 -0.000000 12.286400 -6.265570 6.728080 16.377300 -0.000001 -0.000001 -1.099380 -4.879210 3.146620 6.456720 -0.000001 -0.000000 -11.954900 -3.236920 6.327560 12.994200 -0.242716 4.980390 -90.886700 3.346300 -75.149500 5.348090 -0.000007 -0.000001 -54.060900 30.102300 -39.862800 24.328600 0.000019 0.000005 15.012200 8.687540 -60.608500 22.291600 -0.000001 0.000005 24.978200 5.362920 -1.769140 12.994500 -0.242716 -4.980390 87.079600 13.659800 -77.810000 -5.348130 -0.000001 -0.000004 -60.462000 21.199100 -1.769020 -24.328900 0.000322 -0.000009 0.883734 7.752430 -6.534080 -22.291500 -0.000108 -0.000004 12.375900 5.230260 1.951990 -2.192480 -6.469440 -0.000000 -167.821000 -0.073790 -3.433400 39.081100 -0.000007 -0.000012 0.076582 -0.021924 74.020200 40.985400 -0.000006 -0.000013 -0.038476 5.004450 -44.157000 11.754300 -0.000000 0.000003 -0.009356 -0.098772 -20.600400 -2.192510 6.469440 -0.000001 -173.394000 17.593600 165.400000 -39.081100 -0.002282 -0.040193 0.144129 -0.098836 54.952200 -40.985400 0.000008 0.000006 10.137900 -0.371721 -81.757600 -11.754300 -0.000006 -0.000006 -1.710560 -2.195200 -16.433700
0.000000 0.000000 0.000000 0.000000 0.000000 -0.000000 -41.656700 85.071500 195.521000 -50.606500 81.831800 149.869000 15.735700 0.000005 -0.000001 77.918300 79.933500 -75.145800 8.984550 -0.406207 -0.000000 12.048900 -4.073790 5.975610 16.377300 -0.000001 -0.000001 -0.117816 -4.615260 3.504970 6.456720 -0.000001 -0.000000 -10.277700 -3.684590 6.962490 12.994200 -0.242716 4.980390 -90.956100 3.434030 -74.431700 5.348090 -0.000007 -0.000001 -55.306800 32.967400 -37.374300 24.328600 0.000019 0.000005 13.417500 10.783300 -51.894000 22.291600 -0.000001 0.000005 22.935600 5.327750 -0.695099 12.994500 -0.242716 -4.980390 87.209500 13.778600 -78.434200 -5.348130 -0.000001 -0.000004 -59.464200 20.937600 -5.889410 -24.328900 0.000322 -0.000009 0.841838 4.596060 -10.434500 -22.291500 -0.000108 -0.000004 14.110200 5.274770 0.778555 -2.192480 -6.469440 -0.000000 -169.729000 -3.258680 -7.123800 39.081100 -0.000007 -0.000012 0.051493 -0.011405 77.503400 40.985400 -0.000006 -0.000013 4.444690 -1.013810 -49.958600 11.754300 -0.000000 0.000003 -0.007549 -0.084321 -20.010000 -2.192510 6.469440 -0.000001 -174.467000 15.591500 169.722000 -39.081100 -0.002282 -0.040193 0.118826 -0.091320 51.689100 -40.985400 0.000008 0.000006 10.379700 1.116920 -81.692000 -11.754300 -0.000006 -0.000006 -2.051170 -2.627010 -16.912700
0.000000 0.000000 0.000000 0.000000 0.000000 -0.000000 -38.535800 86.513300 195.099000 -33.756400 85.065600 132.961000 15.735700 0.000005 -0.000001 84.412800 80.334300 -82.043800 8.984550 -0.406207 -0.000000 11.519400 -1.789390 4.917060 16.377300 -0.000001 -0.000001 0.689014 -4.649780 3.417790 6.456720 -0.000001 -0.000000 -8.617580 -4.128840 7.360070 12.994200 -0.242716 4.980390 -91.110300 3.925100 -74.191900 5.348090 -0.000007 -0.000001 -56.403700 35.808500 -33.749400 24.328600 0.000019 0.000005 11.114500 12.819600 -41.522100 22.291600 -0.000001 0.000005 17.773300 5.289730 0.366750 12.994500 -0.242716 -4.980390 87.367600 13.418800 -78.793900 -5.348130 -0.000001 -0.000004 -58.737600 22.008900 -10.148200 -24.328900 0.000322 -0.000009 -0.133702 -0.488689 -14.857900 -22.291500 -0.000108 -0.000004 16.208000 5.339170 -1.041000 -2.192480 -6.469440 -0.000000 -172.459000 -6.192930 -10.425900 39.081100 -0.000007 -0.000012 0.034040 -0.008009 76.749300 40.985400 -0.000006 -0.000013 6.312030 -5.747070 -53.325300 11.754300 -0.000000 0.000003 -0.008166 -0.089395 -20.217200 -2.192510 6.469440 -0.000001 -176.245000 13.632400 174.531000 -39.081100 -0.002282 -0.040193 0.093239 -0.085078 46.604200 -40.985400 0.000008 0.000006 10.428800 3.230510 -80.255200 -11.754300 -0.000006 -0.000006 -2.523820 -3.210690 -17.630200
0.000000 0.000000 0.000000 0.000000 0.000000 -0.000000 -35.769100 88.129600 194.654000 15.564500 86.805400 82.261500 15.735700 0.000005 -0.000001 89.745300 81.090300 -87.878000 8.984550 -0.406207 -0.000000 10.056500 -0.041395 3.735640 16.377300 -0.000001 -0.000001 1.357470 -4.387790 3.311760 6.456720 -0.000001 -0.000000 -7.414360 -4.261570 6.752570 12.994200 -0.242716 4.980390 -91.213900 4.183840 -73.805500 5.348090 -0.000007 -0.000001 -58.256400 38.033000 -28.677000 24.328600 0.000019 0.000005 8.836400 15.390600 -30.370000 22.291600 -0.000001 0.000005 12.482300 5.262600 1.102080 12.994500 -0.242716 -4.980390 87.669800 12.483400 -79.338900 -5.348130 -0.000001 -0.000004 -58.856100 23.668600 -14.579700 -24.328900 0.000322 -0.000009 -1.100430 -3.080760 -19.635200 -22.291500 -0.000108 -0.000004 18.032200 5.377340 -2.210320 -2.192480 -6.469440 -0.000000 -175.320000 -8.241510 -14.644500 39.081100 -0.000007 -0.000012 0.026458 -0.008269 72.630600 40.985400 -0.000006 -0.000013 6.948350 -7.232440 -57.633900 11.754300 -0.000000 0.000003 -0.007418 -0.083222 -19.965100 -2.192510 6.469440 -0.000001 -177.823000 12.232000 177.343000 -39.081100 -0.002282 -0.040193 0.070980 -0.076798 41.399700 -40.985400 0.000008 0.000006 10.659300 5.820620 -76.858200 -11.754300 -0.000006 -0.000006 -2.878030 -3.491800 -19.463600
